<?xml version="1.0" encoding="UTF-8" standalone="no"?>
<svg
   xmlns:dc="http://purl.org/dc/elements/1.1/"
   xmlns:cc="http://creativecommons.org/ns#"
   xmlns:rdf="http://www.w3.org/1999/02/22-rdf-syntax-ns#"
   xmlns:svg="http://www.w3.org/2000/svg"
   xmlns="http://www.w3.org/2000/svg"
   xmlns:sodipodi="http://sodipodi.sourceforge.net/DTD/sodipodi-0.dtd"
   xmlns:inkscape="http://www.inkscape.org/namespaces/inkscape"
   inkscape:version="1.0 (4035a4f, 2020-05-01)"
   sodipodi:docname="pix.svg"
   id="svg30"
   version="1.1"
   height="34.946976"
   width="33.879726">
  <metadata
     id="metadata36">
    <rdf:RDF>
      <cc:Work
         rdf:about="">
        <dc:format>image/svg+xml</dc:format>
        <dc:type
           rdf:resource="http://purl.org/dc/dcmitype/StillImage" />
      </cc:Work>
    </rdf:RDF>
  </metadata>
  <defs
     id="defs34" />
  <sodipodi:namedview
     inkscape:current-layer="g28"
     inkscape:window-maximized="1"
     inkscape:window-y="23"
     inkscape:window-x="0"
     inkscape:cy="17.597556"
     inkscape:cx="29.10016"
     inkscape:zoom="11.201832"
     showgrid="false"
     id="namedview32"
     inkscape:window-height="701"
     inkscape:window-width="1280"
     inkscape:pageshadow="2"
     inkscape:pageopacity="0"
     guidetolerance="10"
     gridtolerance="10"
     objecttolerance="10"
     borderopacity="1"
     bordercolor="#666666"
     pagecolor="#ffffff" />
  <g
     transform="translate(-3.9301507,-0.1974444)"
     id="g28"
     data-name="Logo Pix - Sem Slogan">
    <g
       inkscape:export-ydpi="96"
       inkscape:export-xdpi="96"
       transform="matrix(1.0215335,0,0,1.0538401,3.9278807,-2.3625673)"
       style="opacity:0.57;stroke:none;stroke-width:0;stroke-miterlimit:4;stroke-dasharray:none"
       id="g26"
       clip-path="url(#a)"
       data-name="Logo PIX">
      <path
         style="stroke:none;stroke-width:0;stroke-miterlimit:4;stroke-dasharray:none"
         id="path20"
         fill="#32bcad"
         d="m 25.862,27.797 a 4.842,4.842 0 0 1 -3.445,-1.426 l -4.975,-4.975 a 0.945,0.945 0 0 0 -1.307,0 l -4.993,4.993 a 4.843,4.843 0 0 1 -3.445,1.426 h -0.98 l 6.3,6.3 a 5.039,5.039 0 0 0 7.126,0 l 6.319,-6.318 z"
         data-name="Caminho 6" />
      <path
         style="stroke:none;stroke-width:0;stroke-miterlimit:4;stroke-dasharray:none"
         id="path22"
         fill="#32bcad"
         d="m 7.701,10.203 a 4.842,4.842 0 0 1 3.445,1.427 l 4.993,4.994 a 0.925,0.925 0 0 0 1.307,0 l 4.975,-4.975 a 4.842,4.842 0 0 1 3.445,-1.426 h 0.6 L 20.148,3.905 a 5.039,5.039 0 0 0 -7.126,0 l -6.3,6.3 z"
         data-name="Caminho 7" />
      <path
         style="stroke:none;stroke-width:0;stroke-miterlimit:4;stroke-dasharray:none"
         id="path24"
         fill="#32bcad"
         d="m 31.691,15.447 -3.818,-3.818 a 0.727,0.727 0 0 1 -0.271,0.055 h -1.736 a 3.431,3.431 0 0 0 -2.41,1 l -4.975,4.975 a 2.39,2.39 0 0 1 -3.377,0 l -4.993,-4.993 a 3.432,3.432 0 0 0 -2.41,-1 H 5.567 A 0.722,0.722 0 0 1 5.311,11.614 l -3.833,3.833 a 5.039,5.039 0 0 0 0,7.126 l 3.833,3.833 a 0.723,0.723 0 0 1 0.257,-0.052 h 2.134 a 3.432,3.432 0 0 0 2.41,-1 l 4.993,-4.993 a 2.445,2.445 0 0 1 3.377,0 l 4.975,4.974 a 3.43,3.43 0 0 0 2.41,1 h 1.736 a 0.726,0.726 0 0 1 0.271,0.055 l 3.818,-3.818 a 5.039,5.039 0 0 0 0,-7.126"
         data-name="Caminho 8" />
    </g>
  </g>
</svg>
